<mxfile host="Electron" modified="2023-04-23T18:58:38.948Z" agent="Mozilla/5.0 (Windows NT 10.0; Win64; x64) AppleWebKit/537.36 (KHTML, like Gecko) draw.io/21.2.1 Chrome/112.0.5615.87 Electron/24.1.2 Safari/537.36" etag="-5Y__OpAx8OQvrF17vCh" version="21.2.1" type="device">
  <diagram name="Страница 1" id="kgJw-4vOIqceegCQzZOf">
    <mxGraphModel dx="1418" dy="838" grid="1" gridSize="10" guides="1" tooltips="1" connect="1" arrows="1" fold="1" page="1" pageScale="1" pageWidth="827" pageHeight="1169" math="0" shadow="0">
      <root>
        <mxCell id="0" />
        <mxCell id="1" parent="0" />
        <mxCell id="v21iooVHpLKDQjo4kyvp-3" value="" style="edgeStyle=orthogonalEdgeStyle;rounded=0;orthogonalLoop=1;jettySize=auto;html=1;" edge="1" parent="1" source="v21iooVHpLKDQjo4kyvp-1" target="v21iooVHpLKDQjo4kyvp-2">
          <mxGeometry relative="1" as="geometry" />
        </mxCell>
        <mxCell id="v21iooVHpLKDQjo4kyvp-1" value="start" style="strokeWidth=2;html=1;shape=mxgraph.flowchart.start_1;whiteSpace=wrap;" vertex="1" parent="1">
          <mxGeometry x="150" y="40" width="100" height="60" as="geometry" />
        </mxCell>
        <mxCell id="v21iooVHpLKDQjo4kyvp-5" value="" style="edgeStyle=orthogonalEdgeStyle;rounded=0;orthogonalLoop=1;jettySize=auto;html=1;" edge="1" parent="1" source="v21iooVHpLKDQjo4kyvp-2" target="v21iooVHpLKDQjo4kyvp-4">
          <mxGeometry relative="1" as="geometry" />
        </mxCell>
        <mxCell id="v21iooVHpLKDQjo4kyvp-2" value="initialArray" style="shape=parallelogram;html=1;strokeWidth=2;perimeter=parallelogramPerimeter;whiteSpace=wrap;rounded=1;arcSize=12;size=0.23;" vertex="1" parent="1">
          <mxGeometry x="130" y="150" width="140" height="60" as="geometry" />
        </mxCell>
        <mxCell id="v21iooVHpLKDQjo4kyvp-8" value="" style="edgeStyle=orthogonalEdgeStyle;rounded=0;orthogonalLoop=1;jettySize=auto;html=1;" edge="1" parent="1" source="v21iooVHpLKDQjo4kyvp-4" target="v21iooVHpLKDQjo4kyvp-7">
          <mxGeometry relative="1" as="geometry" />
        </mxCell>
        <mxCell id="v21iooVHpLKDQjo4kyvp-4" value="size = size(initialArray)&lt;br&gt;resultArray&lt;br&gt;j = 0&lt;br&gt;i =0" style="whiteSpace=wrap;html=1;strokeWidth=2;rounded=1;arcSize=12;" vertex="1" parent="1">
          <mxGeometry x="120" y="250" width="160" height="60" as="geometry" />
        </mxCell>
        <mxCell id="v21iooVHpLKDQjo4kyvp-6" value="Yes" style="edgeStyle=orthogonalEdgeStyle;rounded=0;orthogonalLoop=1;jettySize=auto;html=1;entryX=0.5;entryY=0;entryDx=0;entryDy=0;" edge="1" parent="1" source="v21iooVHpLKDQjo4kyvp-7" target="v21iooVHpLKDQjo4kyvp-9">
          <mxGeometry relative="1" as="geometry">
            <mxPoint x="200" y="530" as="targetPoint" />
          </mxGeometry>
        </mxCell>
        <mxCell id="v21iooVHpLKDQjo4kyvp-21" value="No" style="edgeStyle=orthogonalEdgeStyle;rounded=0;orthogonalLoop=1;jettySize=auto;html=1;exitX=0;exitY=0.5;exitDx=0;exitDy=0;entryX=0;entryY=0.5;entryDx=0;entryDy=0;" edge="1" parent="1" source="v21iooVHpLKDQjo4kyvp-7" target="v21iooVHpLKDQjo4kyvp-25">
          <mxGeometry relative="1" as="geometry">
            <mxPoint x="100" y="880" as="targetPoint" />
            <Array as="points">
              <mxPoint x="10" y="400" />
              <mxPoint x="10" y="880" />
            </Array>
          </mxGeometry>
        </mxCell>
        <mxCell id="v21iooVHpLKDQjo4kyvp-7" value="i &amp;lt; size" style="rhombus;whiteSpace=wrap;html=1;strokeWidth=2;rounded=1;arcSize=12;" vertex="1" parent="1">
          <mxGeometry x="100" y="360" width="200" height="80" as="geometry" />
        </mxCell>
        <mxCell id="v21iooVHpLKDQjo4kyvp-12" value="" style="edgeStyle=orthogonalEdgeStyle;rounded=0;orthogonalLoop=1;jettySize=auto;html=1;" edge="1" parent="1" source="v21iooVHpLKDQjo4kyvp-9" target="v21iooVHpLKDQjo4kyvp-11">
          <mxGeometry relative="1" as="geometry" />
        </mxCell>
        <mxCell id="v21iooVHpLKDQjo4kyvp-9" value="sizeElement = size(initialArray[i])" style="whiteSpace=wrap;html=1;strokeWidth=2;rounded=1;arcSize=12;" vertex="1" parent="1">
          <mxGeometry x="120" y="500" width="160" height="60" as="geometry" />
        </mxCell>
        <mxCell id="v21iooVHpLKDQjo4kyvp-18" value="No" style="edgeStyle=orthogonalEdgeStyle;rounded=0;orthogonalLoop=1;jettySize=auto;html=1;exitX=1;exitY=0.5;exitDx=0;exitDy=0;entryX=0.5;entryY=0;entryDx=0;entryDy=0;" edge="1" parent="1" source="v21iooVHpLKDQjo4kyvp-11" target="v21iooVHpLKDQjo4kyvp-15">
          <mxGeometry relative="1" as="geometry">
            <mxPoint x="420" y="690" as="targetPoint" />
            <Array as="points">
              <mxPoint x="420" y="640" />
            </Array>
          </mxGeometry>
        </mxCell>
        <mxCell id="v21iooVHpLKDQjo4kyvp-11" value="sizeElement &amp;lt;= 3" style="rhombus;whiteSpace=wrap;html=1;strokeWidth=2;rounded=1;arcSize=12;" vertex="1" parent="1">
          <mxGeometry x="100" y="600" width="200" height="80" as="geometry" />
        </mxCell>
        <mxCell id="v21iooVHpLKDQjo4kyvp-17" value="" style="edgeStyle=orthogonalEdgeStyle;rounded=0;orthogonalLoop=1;jettySize=auto;html=1;entryX=0;entryY=0.5;entryDx=0;entryDy=0;" edge="1" parent="1" source="v21iooVHpLKDQjo4kyvp-13" target="v21iooVHpLKDQjo4kyvp-15">
          <mxGeometry relative="1" as="geometry">
            <mxPoint x="330" y="710" as="targetPoint" />
          </mxGeometry>
        </mxCell>
        <mxCell id="v21iooVHpLKDQjo4kyvp-19" style="edgeStyle=orthogonalEdgeStyle;rounded=0;orthogonalLoop=1;jettySize=auto;html=1;entryX=1;entryY=0.5;entryDx=0;entryDy=0;exitX=1;exitY=0.5;exitDx=0;exitDy=0;" edge="1" parent="1" source="v21iooVHpLKDQjo4kyvp-15" target="v21iooVHpLKDQjo4kyvp-7">
          <mxGeometry relative="1" as="geometry">
            <Array as="points">
              <mxPoint x="530" y="750" />
              <mxPoint x="530" y="400" />
            </Array>
          </mxGeometry>
        </mxCell>
        <mxCell id="v21iooVHpLKDQjo4kyvp-15" value="i = i + 1" style="whiteSpace=wrap;html=1;strokeWidth=2;rounded=1;arcSize=12;" vertex="1" parent="1">
          <mxGeometry x="340" y="720" width="160" height="60" as="geometry" />
        </mxCell>
        <mxCell id="v21iooVHpLKDQjo4kyvp-23" value="" style="edgeStyle=orthogonalEdgeStyle;rounded=0;orthogonalLoop=1;jettySize=auto;html=1;" edge="1" parent="1" source="v21iooVHpLKDQjo4kyvp-20" target="v21iooVHpLKDQjo4kyvp-22">
          <mxGeometry relative="1" as="geometry" />
        </mxCell>
        <mxCell id="v21iooVHpLKDQjo4kyvp-20" value="resultArray" style="shape=document;whiteSpace=wrap;html=1;boundedLbl=1;strokeWidth=2;rounded=1;arcSize=12;size=0.25;" vertex="1" parent="1">
          <mxGeometry x="360" y="840" width="120" height="80" as="geometry" />
        </mxCell>
        <mxCell id="v21iooVHpLKDQjo4kyvp-22" value="finish" style="strokeWidth=2;html=1;shape=mxgraph.flowchart.start_1;whiteSpace=wrap;" vertex="1" parent="1">
          <mxGeometry x="370" y="960" width="100" height="60" as="geometry" />
        </mxCell>
        <mxCell id="v21iooVHpLKDQjo4kyvp-24" value="Yes" style="edgeStyle=orthogonalEdgeStyle;rounded=0;orthogonalLoop=1;jettySize=auto;html=1;" edge="1" parent="1" source="v21iooVHpLKDQjo4kyvp-11" target="v21iooVHpLKDQjo4kyvp-13">
          <mxGeometry relative="1" as="geometry">
            <mxPoint x="200" y="770" as="targetPoint" />
            <mxPoint x="200" y="680" as="sourcePoint" />
          </mxGeometry>
        </mxCell>
        <mxCell id="v21iooVHpLKDQjo4kyvp-13" value="resultArray[j] = initialArray[i]&lt;br&gt;j = j +1" style="whiteSpace=wrap;html=1;strokeWidth=2;rounded=1;arcSize=12;" vertex="1" parent="1">
          <mxGeometry x="120" y="720" width="160" height="60" as="geometry" />
        </mxCell>
        <mxCell id="v21iooVHpLKDQjo4kyvp-26" value="" style="edgeStyle=orthogonalEdgeStyle;rounded=0;orthogonalLoop=1;jettySize=auto;html=1;" edge="1" parent="1" source="v21iooVHpLKDQjo4kyvp-25" target="v21iooVHpLKDQjo4kyvp-20">
          <mxGeometry relative="1" as="geometry" />
        </mxCell>
        <mxCell id="v21iooVHpLKDQjo4kyvp-25" value="Array.Resize(ref &lt;br&gt;resultArray, j)" style="whiteSpace=wrap;html=1;strokeWidth=2;rounded=1;arcSize=12;" vertex="1" parent="1">
          <mxGeometry x="120" y="850" width="160" height="60" as="geometry" />
        </mxCell>
      </root>
    </mxGraphModel>
  </diagram>
</mxfile>
